<svg id="visual" viewBox="0 0 960 540" width="960" height="540" xmlns="http://www.w3.org/2000/svg" xmlns:xlink="http://www.w3.org/1999/xlink" version="1.1"><path d="M0 125L87 77L175 168L262 195L349 190L436 179L524 222L611 141L698 136L785 158L873 131L960 136L960 0L873 0L785 0L698 0L611 0L524 0L436 0L349 0L262 0L175 0L87 0L0 0Z" fill="#0b110f"></path><path d="M0 179L87 158L175 244L262 287L349 282L436 239L524 260L611 217L698 190L785 233L873 222L960 190L960 134L873 129L785 156L698 134L611 139L524 220L436 177L349 188L262 193L175 166L87 75L0 123Z" fill="#0e160b"></path><path d="M0 233L87 255L175 330L262 352L349 379L436 330L524 325L611 287L698 271L785 314L873 276L960 239L960 188L873 220L785 231L698 188L611 215L524 258L436 237L349 280L262 285L175 242L87 156L0 177Z" fill="#191802"></path><path d="M0 395L87 422L175 406L262 422L349 455L436 401L524 482L611 460L698 401L785 482L873 438L960 390L960 237L873 274L785 312L698 269L611 285L524 323L436 328L349 377L262 350L175 328L87 253L0 231Z" fill="#261700"></path><path d="M0 541L87 541L175 541L262 541L349 541L436 541L524 541L611 541L698 541L785 541L873 541L960 541L960 388L873 436L785 480L698 399L611 458L524 480L436 399L349 453L262 420L175 404L87 420L0 393Z" fill="#331409"></path></svg>